<svg width="60" height="60" viewBox="0 0 60 60" fill="none" xmlns="http://www.w3.org/2000/svg">
  <!-- Layered background for depth -->
  <circle cx="30" cy="30" r="30" fill="url(#bg_gradient)"/>
  <circle cx="30" cy="30" r="28" fill="#001A42" fill-opacity="0.7"/>
  <circle cx="30" cy="30" r="26" fill="#002255" fill-opacity="0.5"/>
  
  <!-- Professional headshot frame -->
  <circle cx="30" cy="25" r="13" fill="url(#face_gradient)"/>
  
  <!-- Minimalist face features -->
  <path d="M25 23C25 21.8954 25.8954 21 27 21H33C34.1046 21 35 21.8954 35 23V29C35 30.1046 34.1046 31 33 31H27C25.8954 31 25 30.1046 25 29V23Z" fill="#001A42" fill-opacity="0.8"/>
  <path d="M27 24C27 23.4477 27.4477 23 28 23H32C32.5523 23 33 23.4477 33 24V26C33 27.6569 31.6569 29 30 29C28.3431 29 27 27.6569 27 26V24Z" fill="#4FACFF" fill-opacity="0.4"/>
  
  <!-- Professional collar/suit -->
  <path d="M23 32L30 38L37 32" fill="#4FACFF" fill-opacity="0.2"/>
  <path d="M23 32L30 38L37 32" stroke="#4FACFF" stroke-width="1.5" stroke-linecap="round" stroke-linejoin="round"/>
  
  <!-- Professional headset -->
  <path d="M22 20C22 17.2386 25.5817 15 30 15C34.4183 15 38 17.2386 38 20" stroke="#4FACFF" stroke-width="1.5" stroke-linecap="round"/>
  <path d="M22 20V24" stroke="#4FACFF" stroke-width="1.5" stroke-linecap="round"/>
  <path d="M38 20V24" stroke="#4FACFF" stroke-width="1.5" stroke-linecap="round"/>
  <rect x="20" y="20" width="3" height="6" rx="1.5" fill="#4FACFF"/>
  <rect x="37" y="20" width="3" height="6" rx="1.5" fill="#4FACFF"/>
  
  <!-- Connection/data visualization -->
  <path d="M15 36C15 36 21 42 30 42C39 42 45 36 45 36" stroke="#4FACFF" stroke-width="1" stroke-linecap="round" stroke-dasharray="2 2"/>
  <path d="M12 40C12 40 20 48 30 48C40 48 48 40 48 40" stroke="#4FACFF" stroke-width="1" stroke-linecap="round" stroke-dasharray="2 2"/>
  
  <!-- Digital elements -->
  <circle cx="18" cy="36" r="1.5" fill="#4FACFF"/>
  <circle cx="42" cy="36" r="1.5" fill="#4FACFF"/>
  <circle cx="30" cy="42" r="1.5" fill="#4FACFF"/>
  <circle cx="24" cy="39" r="1" fill="#4FACFF"/>
  <circle cx="36" cy="39" r="1" fill="#4FACFF"/>
  
  <!-- AI interview Q&A element -->
  <path d="M44 22C44 20.3431 42.6569 19 41 19H36C34.3431 19 33 20.3431 33 22V26C33 27.6569 34.3431 29 36 29H39L42 32V29H41C42.6569 29 44 27.6569 44 26V22Z" fill="white" fill-opacity="0.9"/>
  <path d="M36 24H41" stroke="#1E88E5" stroke-width="1" stroke-linecap="round"/>
  <path d="M38.5 21.5V26.5" stroke="#1E88E5" stroke-width="1" stroke-linecap="round"/>
  
  <!-- Defs for gradients -->
  <defs>
    <linearGradient id="bg_gradient" x1="0" y1="0" x2="60" y2="60" gradientUnits="userSpaceOnUse">
      <stop offset="0" stop-color="#1E88E5"/>
      <stop offset="1" stop-color="#0D47A1"/>
    </linearGradient>
    <linearGradient id="face_gradient" x1="17" y1="12" x2="43" y2="38" gradientUnits="userSpaceOnUse">
      <stop offset="0" stop-color="#4FACFF"/>
      <stop offset="1" stop-color="#1E88E5"/>
    </linearGradient>
  </defs>
</svg> 