<svg width="40" height="40" viewBox="0 0 40 40" fill="none" xmlns="http://www.w3.org/2000/svg">
  <rect width="40" height="40" rx="10" fill="url(#paint0_linear)" />
  
  <!-- Abstract "A" shape with blue gradient -->
  <path d="M20 8L12 28H17L18.5 24H21.5L23 28H28L20 8ZM20 14L21.5 19H18.5L20 14Z" fill="url(#paint1_linear)" />
  
  <!-- Tech circuit lines -->
  <path d="M10 28H30" stroke="#2D9CDB" stroke-width="1.5" stroke-linecap="round" />
  <path d="M8 30.5C8 30.5 12 33 20 33C28 33 32 30.5 32 30.5" stroke="#2D9CDB" stroke-width="1.5" stroke-linecap="round" />
  
  <!-- Dots / nodes with glow effect -->
  <circle cx="10" cy="28" r="2" fill="#2D9CDB" />
  <circle cx="10" cy="28" r="3" fill="#2D9CDB" fill-opacity="0.3" />
  
  <circle cx="30" cy="28" r="2" fill="#2D9CDB" />
  <circle cx="30" cy="28" r="3" fill="#2D9CDB" fill-opacity="0.3" />
  
  <circle cx="17" cy="28" r="2" fill="#2D9CDB" />
  <circle cx="17" cy="28" r="3" fill="#2D9CDB" fill-opacity="0.3" />
  
  <circle cx="23" cy="28" r="2" fill="#2D9CDB" />
  <circle cx="23" cy="28" r="3" fill="#2D9CDB" fill-opacity="0.3" />
  
  <circle cx="8" cy="30.5" r="2" fill="#2D9CDB" />
  <circle cx="8" cy="30.5" r="3" fill="#2D9CDB" fill-opacity="0.3" />
  
  <circle cx="32" cy="30.5" r="2" fill="#2D9CDB" />
  <circle cx="32" cy="30.5" r="3" fill="#2D9CDB" fill-opacity="0.3" />
  
  <circle cx="20" cy="33" r="2" fill="#2D9CDB" />
  <circle cx="20" cy="33" r="3" fill="#2D9CDB" fill-opacity="0.3" />
  
  <defs>
    <linearGradient id="paint0_linear" x1="0" y1="0" x2="40" y2="40" gradientUnits="userSpaceOnUse">
      <stop offset="0" stop-color="#0A2540" />
      <stop offset="1" stop-color="#000000" />
    </linearGradient>
    <linearGradient id="paint1_linear" x1="12" y1="8" x2="28" y2="28" gradientUnits="userSpaceOnUse">
      <stop offset="0" stop-color="#56CCF2" />
      <stop offset="1" stop-color="#2D9CDB" />
    </linearGradient>
  </defs>
</svg> 