<svg width="40" height="40" viewBox="0 0 40 40" fill="none" xmlns="http://www.w3.org/2000/svg">
  <!-- Main background with darker gradient -->
  <rect width="40" height="40" rx="10" fill="url(#paint0_linear)" />
  
  <!-- Inner rounded rectangle for depth -->
  <rect x="4" y="4" width="32" height="32" rx="8" fill="url(#paint1_linear)" fill-opacity="0.4" />
  
  <!-- Stylized modern "A" -->
  <path d="M16 12L20 25L24 12M17.5 20H22.5" stroke="url(#paint2_linear)" stroke-width="3" stroke-linecap="round" stroke-linejoin="round" />
  
  <!-- Audio visualization waves -->
  <path d="M12 28C12 26 12 24 12 22" stroke="#56CCF2" stroke-width="1.5" stroke-linecap="round" />
  <path d="M16 29C16 26 16 23 16 20" stroke="#56CCF2" stroke-width="1.5" stroke-linecap="round" />
  <path d="M20 30C20 26 20 22 20 18" stroke="#56CCF2" stroke-width="1.5" stroke-linecap="round" />
  <path d="M24 29C24 26 24 23 24 20" stroke="#56CCF2" stroke-width="1.5" stroke-linecap="round" />
  <path d="M28 28C28 26 28 24 28 22" stroke="#56CCF2" stroke-width="1.5" stroke-linecap="round" />
  
  <!-- Glow effect -->
  <circle cx="20" cy="20" r="12" fill="url(#paint3_radial)" fill-opacity="0.15" />
  
  <defs>
    <!-- Main dark blue-black gradient -->
    <linearGradient id="paint0_linear" x1="20" y1="0" x2="20" y2="40" gradientUnits="userSpaceOnUse">
      <stop offset="0" stop-color="#0F2B4C" />
      <stop offset="1" stop-color="#071426" />
    </linearGradient>
    
    <!-- Inner gradient for depth -->
    <linearGradient id="paint1_linear" x1="20" y1="4" x2="20" y2="36" gradientUnits="userSpaceOnUse">
      <stop offset="0" stop-color="#1E4D8C" />
      <stop offset="1" stop-color="#0A2540" />
    </linearGradient>
    
    <!-- Letter "A" gradient -->
    <linearGradient id="paint2_linear" x1="16" y1="12" x2="24" y2="25" gradientUnits="userSpaceOnUse">
      <stop offset="0" stop-color="#56CCF2" />
      <stop offset="1" stop-color="#2D9CDB" />
    </linearGradient>
    
    <!-- Glow effect -->
    <radialGradient id="paint3_radial" cx="0" cy="0" r="1" gradientUnits="userSpaceOnUse" gradientTransform="translate(20 20) rotate(90) scale(12)">
      <stop offset="0" stop-color="#56CCF2" />
      <stop offset="1" stop-color="#2D9CDB" stop-opacity="0" />
    </radialGradient>
  </defs>
</svg> 