<svg width="40" height="40" viewBox="0 0 40 40" fill="none" xmlns="http://www.w3.org/2000/svg">
  <rect width="40" height="40" rx="10" fill="url(#paint0_radial)" />
  
  <!-- Abstract "A" shape -->
  <path d="M20 8L12 28H17L18.5 24H21.5L23 28H28L20 8ZM20 14L21.5 19H18.5L20 14Z" fill="white" />
  
  <!-- Tech circuit lines -->
  <path d="M10 28H30" stroke="#CAC5FE" stroke-width="1" stroke-linecap="round" />
  <path d="M8 30.5C8 30.5 12 33 20 33C28 33 32 30.5 32 30.5" stroke="#CAC5FE" stroke-width="1" stroke-linecap="round" />
  
  <!-- Dots / nodes -->
  <circle cx="10" cy="28" r="1.5" fill="#CAC5FE" />
  <circle cx="30" cy="28" r="1.5" fill="#CAC5FE" />
  <circle cx="17" cy="28" r="1.5" fill="#CAC5FE" />
  <circle cx="23" cy="28" r="1.5" fill="#CAC5FE" />
  <circle cx="8" cy="30.5" r="1.5" fill="#CAC5FE" />
  <circle cx="32" cy="30.5" r="1.5" fill="#CAC5FE" />
  <circle cx="20" cy="33" r="1.5" fill="#CAC5FE" />
  
  <defs>
    <radialGradient id="paint0_radial" cx="0" cy="0" r="1" gradientUnits="userSpaceOnUse" gradientTransform="translate(20 20) rotate(90) scale(30)">
      <stop offset="0" stop-color="#171532" />
      <stop offset="1" stop-color="#08090D" />
    </radialGradient>
  </defs>
</svg> 